<mxfile host="app.diagrams.net" modified="2023-06-08T16:24:38.858Z" agent="Mozilla/5.0 (Windows NT 10.0; Win64; x64) AppleWebKit/537.36 (KHTML, like Gecko) Chrome/114.0.0.0 Safari/537.36" etag="mwYkLYtgK-v00aBAZvXx" version="21.3.4" type="device">
  <diagram name="Pagina-1" id="t3WNDSSrl377M0ZZJApQ">
    <mxGraphModel dx="1434" dy="1876" grid="1" gridSize="10" guides="1" tooltips="1" connect="1" arrows="1" fold="1" page="1" pageScale="1" pageWidth="827" pageHeight="1169" math="0" shadow="0">
      <root>
        <mxCell id="0" />
        <mxCell id="1" parent="0" />
        <mxCell id="_iW7lStZhV066AtyDzzr-1" value="" style="rounded=0;whiteSpace=wrap;html=1;fillColor=none;strokeColor=#b85450;" parent="1" vertex="1">
          <mxGeometry x="60" y="60" width="400" height="230" as="geometry" />
        </mxCell>
        <mxCell id="_iW7lStZhV066AtyDzzr-2" value="InterfacciaAmministratore" style="rounded=0;whiteSpace=wrap;html=1;fillColor=#f8cecc;strokeColor=#b85450;" parent="1" vertex="1">
          <mxGeometry x="60" y="30" width="150" height="30" as="geometry" />
        </mxCell>
        <mxCell id="_iW7lStZhV066AtyDzzr-3" value="Home Gestione Amministratore" style="rounded=0;whiteSpace=wrap;html=1;fillColor=#f8cecc;strokeColor=#b85450;" parent="1" vertex="1">
          <mxGeometry x="170" y="80" width="170" height="20" as="geometry" />
        </mxCell>
        <mxCell id="_iW7lStZhV066AtyDzzr-4" value="" style="rounded=0;whiteSpace=wrap;html=1;fillColor=#f5f5f5;fontColor=#333333;strokeColor=#666666;" parent="1" vertex="1">
          <mxGeometry x="170" y="100" width="170" height="30" as="geometry" />
        </mxCell>
        <mxCell id="_iW7lStZhV066AtyDzzr-5" value="" style="endArrow=none;html=1;rounded=0;exitX=0;exitY=0.5;exitDx=0;exitDy=0;entryX=1;entryY=0.5;entryDx=0;entryDy=0;" parent="1" source="_iW7lStZhV066AtyDzzr-4" target="_iW7lStZhV066AtyDzzr-4" edge="1">
          <mxGeometry width="50" height="50" relative="1" as="geometry">
            <mxPoint x="390" y="180" as="sourcePoint" />
            <mxPoint x="440" y="130" as="targetPoint" />
          </mxGeometry>
        </mxCell>
        <mxCell id="_iW7lStZhV066AtyDzzr-6" value="View Visualizzazione Log" style="rounded=0;whiteSpace=wrap;html=1;fillColor=#f8cecc;strokeColor=#b85450;" parent="1" vertex="1">
          <mxGeometry x="80" y="150" width="140" height="30" as="geometry" />
        </mxCell>
        <mxCell id="_iW7lStZhV066AtyDzzr-7" value="" style="rounded=0;whiteSpace=wrap;html=1;fillColor=#f5f5f5;fontColor=#333333;strokeColor=#666666;" parent="1" vertex="1">
          <mxGeometry x="80" y="180" width="140" height="40" as="geometry" />
        </mxCell>
        <mxCell id="_iW7lStZhV066AtyDzzr-8" value="" style="endArrow=none;html=1;rounded=0;exitX=0;exitY=0.5;exitDx=0;exitDy=0;entryX=1;entryY=0.5;entryDx=0;entryDy=0;" parent="1" source="_iW7lStZhV066AtyDzzr-7" target="_iW7lStZhV066AtyDzzr-7" edge="1">
          <mxGeometry width="50" height="50" relative="1" as="geometry">
            <mxPoint x="390" y="180" as="sourcePoint" />
            <mxPoint x="440" y="130" as="targetPoint" />
          </mxGeometry>
        </mxCell>
        <mxCell id="_iW7lStZhV066AtyDzzr-9" value="View Controllo Assistenza" style="rounded=0;whiteSpace=wrap;html=1;fillColor=#f8cecc;strokeColor=#b85450;" parent="1" vertex="1">
          <mxGeometry x="280" y="150" width="160" height="30" as="geometry" />
        </mxCell>
        <mxCell id="_iW7lStZhV066AtyDzzr-11" value="" style="rounded=0;whiteSpace=wrap;html=1;fillColor=#f5f5f5;fontColor=#333333;strokeColor=#666666;" parent="1" vertex="1">
          <mxGeometry x="280" y="180" width="160" height="40" as="geometry" />
        </mxCell>
        <mxCell id="_iW7lStZhV066AtyDzzr-12" value="" style="endArrow=none;html=1;rounded=0;exitX=0;exitY=0.5;exitDx=0;exitDy=0;entryX=1;entryY=0.5;entryDx=0;entryDy=0;" parent="1" source="_iW7lStZhV066AtyDzzr-11" target="_iW7lStZhV066AtyDzzr-11" edge="1">
          <mxGeometry width="50" height="50" relative="1" as="geometry">
            <mxPoint x="390" y="180" as="sourcePoint" />
            <mxPoint x="440" y="130" as="targetPoint" />
          </mxGeometry>
        </mxCell>
        <mxCell id="_iW7lStZhV066AtyDzzr-13" value="" style="endArrow=none;html=1;rounded=0;exitX=1;exitY=0.323;exitDx=0;exitDy=0;exitPerimeter=0;" parent="1" source="_iW7lStZhV066AtyDzzr-4" edge="1">
          <mxGeometry width="50" height="50" relative="1" as="geometry">
            <mxPoint x="390" y="180" as="sourcePoint" />
            <mxPoint x="400" y="110" as="targetPoint" />
          </mxGeometry>
        </mxCell>
        <mxCell id="_iW7lStZhV066AtyDzzr-14" value="" style="endArrow=classic;html=1;rounded=0;entryX=0.75;entryY=0;entryDx=0;entryDy=0;" parent="1" target="_iW7lStZhV066AtyDzzr-9" edge="1">
          <mxGeometry width="50" height="50" relative="1" as="geometry">
            <mxPoint x="400" y="110" as="sourcePoint" />
            <mxPoint x="440" y="110" as="targetPoint" />
          </mxGeometry>
        </mxCell>
        <mxCell id="_iW7lStZhV066AtyDzzr-15" value="" style="endArrow=none;html=1;rounded=0;exitX=-0.001;exitY=0.356;exitDx=0;exitDy=0;exitPerimeter=0;" parent="1" source="_iW7lStZhV066AtyDzzr-4" edge="1">
          <mxGeometry width="50" height="50" relative="1" as="geometry">
            <mxPoint x="220" y="160" as="sourcePoint" />
            <mxPoint x="120" y="150" as="targetPoint" />
            <Array as="points">
              <mxPoint x="120" y="110" />
            </Array>
          </mxGeometry>
        </mxCell>
        <mxCell id="_iW7lStZhV066AtyDzzr-16" value="" style="endArrow=classic;html=1;rounded=0;entryX=0.287;entryY=0.007;entryDx=0;entryDy=0;entryPerimeter=0;" parent="1" target="_iW7lStZhV066AtyDzzr-6" edge="1">
          <mxGeometry width="50" height="50" relative="1" as="geometry">
            <mxPoint x="120" y="110" as="sourcePoint" />
            <mxPoint x="190" y="110" as="targetPoint" />
          </mxGeometry>
        </mxCell>
        <mxCell id="_iW7lStZhV066AtyDzzr-17" value="" style="rounded=0;whiteSpace=wrap;html=1;fillColor=none;strokeColor=#82b366;" parent="1" vertex="1">
          <mxGeometry x="520" y="290" width="200" height="140" as="geometry" />
        </mxCell>
        <mxCell id="_iW7lStZhV066AtyDzzr-18" value="Log" style="rounded=0;whiteSpace=wrap;html=1;fillColor=#d5e8d4;strokeColor=#82b366;" parent="1" vertex="1">
          <mxGeometry x="520" y="260" width="120" height="30" as="geometry" />
        </mxCell>
        <mxCell id="_iW7lStZhV066AtyDzzr-19" value="" style="rounded=0;whiteSpace=wrap;html=1;fillColor=none;strokeColor=#b85450;" parent="1" vertex="1">
          <mxGeometry x="770" y="60" width="450" height="230" as="geometry" />
        </mxCell>
        <mxCell id="_iW7lStZhV066AtyDzzr-20" value="InterfacciaAssistenza" style="rounded=0;whiteSpace=wrap;html=1;fillColor=#f8cecc;strokeColor=#b85450;" parent="1" vertex="1">
          <mxGeometry x="770" y="30" width="120" height="30" as="geometry" />
        </mxCell>
        <mxCell id="_iW7lStZhV066AtyDzzr-21" value="Home GestioneAssistenza" style="rounded=0;whiteSpace=wrap;html=1;fillColor=#f8cecc;strokeColor=#b85450;" parent="1" vertex="1">
          <mxGeometry x="907.5" y="80" width="175" height="20" as="geometry" />
        </mxCell>
        <mxCell id="_iW7lStZhV066AtyDzzr-22" value="" style="rounded=0;whiteSpace=wrap;html=1;fillColor=#EBEBEB;strokeColor=#b85450;" parent="1" vertex="1">
          <mxGeometry x="907.5" y="100" width="175" height="30" as="geometry" />
        </mxCell>
        <mxCell id="_iW7lStZhV066AtyDzzr-23" value="" style="endArrow=none;html=1;rounded=0;entryX=1;entryY=0.5;entryDx=0;entryDy=0;exitX=0;exitY=0.5;exitDx=0;exitDy=0;strokeColor=#666666;fillColor=#f5f5f5;" parent="1" source="_iW7lStZhV066AtyDzzr-22" target="_iW7lStZhV066AtyDzzr-22" edge="1">
          <mxGeometry width="50" height="50" relative="1" as="geometry">
            <mxPoint x="870" y="100" as="sourcePoint" />
            <mxPoint x="920" y="50" as="targetPoint" />
          </mxGeometry>
        </mxCell>
        <mxCell id="_iW7lStZhV066AtyDzzr-24" value="" style="rounded=0;whiteSpace=wrap;html=1;fillColor=#f5f5f5;fontColor=#333333;strokeColor=#666666;" parent="1" vertex="1">
          <mxGeometry x="780" y="170" width="150" height="40" as="geometry" />
        </mxCell>
        <mxCell id="_iW7lStZhV066AtyDzzr-25" value="View GestioneBan" style="rounded=0;whiteSpace=wrap;html=1;fillColor=#f8cecc;strokeColor=#b85450;" parent="1" vertex="1">
          <mxGeometry x="1070" y="140" width="110" height="30" as="geometry" />
        </mxCell>
        <mxCell id="_iW7lStZhV066AtyDzzr-26" value="View AccettazioneProfessionista" style="rounded=0;whiteSpace=wrap;html=1;fillColor=#f8cecc;strokeColor=#b85450;" parent="1" vertex="1">
          <mxGeometry x="780" y="140" width="150" height="30" as="geometry" />
        </mxCell>
        <mxCell id="_iW7lStZhV066AtyDzzr-27" value="" style="endArrow=none;html=1;rounded=0;exitX=0;exitY=0.5;exitDx=0;exitDy=0;entryX=1;entryY=0.5;entryDx=0;entryDy=0;" parent="1" source="_iW7lStZhV066AtyDzzr-24" target="_iW7lStZhV066AtyDzzr-24" edge="1">
          <mxGeometry width="50" height="50" relative="1" as="geometry">
            <mxPoint x="1040" y="170" as="sourcePoint" />
            <mxPoint x="1090" y="120" as="targetPoint" />
          </mxGeometry>
        </mxCell>
        <mxCell id="_iW7lStZhV066AtyDzzr-28" value="" style="rounded=0;whiteSpace=wrap;html=1;fillColor=#f5f5f5;fontColor=#333333;strokeColor=#666666;" parent="1" vertex="1">
          <mxGeometry x="1070" y="170" width="110" height="40" as="geometry" />
        </mxCell>
        <mxCell id="_iW7lStZhV066AtyDzzr-29" value="" style="endArrow=none;html=1;rounded=0;exitX=0;exitY=0.5;exitDx=0;exitDy=0;entryX=1;entryY=0.5;entryDx=0;entryDy=0;fillColor=#f5f5f5;strokeColor=#666666;" parent="1" source="_iW7lStZhV066AtyDzzr-28" target="_iW7lStZhV066AtyDzzr-28" edge="1">
          <mxGeometry width="50" height="50" relative="1" as="geometry">
            <mxPoint x="1040" y="170" as="sourcePoint" />
            <mxPoint x="1090" y="120" as="targetPoint" />
          </mxGeometry>
        </mxCell>
        <mxCell id="_iW7lStZhV066AtyDzzr-30" value="View RimozioneContenuti" style="rounded=0;whiteSpace=wrap;html=1;fillColor=#f8cecc;strokeColor=#b85450;" parent="1" vertex="1">
          <mxGeometry x="930" y="220" width="150" height="20" as="geometry" />
        </mxCell>
        <mxCell id="_iW7lStZhV066AtyDzzr-31" value="" style="rounded=0;whiteSpace=wrap;html=1;fillColor=#f5f5f5;fontColor=#333333;strokeColor=#666666;" parent="1" vertex="1">
          <mxGeometry x="930" y="240" width="150" height="40" as="geometry" />
        </mxCell>
        <mxCell id="_iW7lStZhV066AtyDzzr-33" value="" style="endArrow=none;html=1;rounded=0;exitX=0;exitY=0.5;exitDx=0;exitDy=0;entryX=1;entryY=0.5;entryDx=0;entryDy=0;" parent="1" source="_iW7lStZhV066AtyDzzr-31" target="_iW7lStZhV066AtyDzzr-31" edge="1">
          <mxGeometry width="50" height="50" relative="1" as="geometry">
            <mxPoint x="1040" y="170" as="sourcePoint" />
            <mxPoint x="1090" y="120" as="targetPoint" />
          </mxGeometry>
        </mxCell>
        <mxCell id="_iW7lStZhV066AtyDzzr-36" value="" style="endArrow=classic;html=1;rounded=0;exitX=0.531;exitY=1.016;exitDx=0;exitDy=0;exitPerimeter=0;entryX=0.468;entryY=-0.01;entryDx=0;entryDy=0;entryPerimeter=0;" parent="1" source="_iW7lStZhV066AtyDzzr-22" target="_iW7lStZhV066AtyDzzr-30" edge="1">
          <mxGeometry width="50" height="50" relative="1" as="geometry">
            <mxPoint x="1040" y="240" as="sourcePoint" />
            <mxPoint x="1090" y="190" as="targetPoint" />
          </mxGeometry>
        </mxCell>
        <mxCell id="_iW7lStZhV066AtyDzzr-37" value="" style="endArrow=classic;html=1;rounded=0;exitX=0.998;exitY=0.313;exitDx=0;exitDy=0;entryX=0.5;entryY=0;entryDx=0;entryDy=0;exitPerimeter=0;" parent="1" source="_iW7lStZhV066AtyDzzr-22" target="_iW7lStZhV066AtyDzzr-25" edge="1">
          <mxGeometry width="50" height="50" relative="1" as="geometry">
            <mxPoint x="1040" y="170" as="sourcePoint" />
            <mxPoint x="1090" y="120" as="targetPoint" />
            <Array as="points">
              <mxPoint x="1125" y="110" />
            </Array>
          </mxGeometry>
        </mxCell>
        <mxCell id="_iW7lStZhV066AtyDzzr-38" value="" style="endArrow=classic;html=1;rounded=0;exitX=0;exitY=0.25;exitDx=0;exitDy=0;entryX=0.5;entryY=0;entryDx=0;entryDy=0;" parent="1" source="_iW7lStZhV066AtyDzzr-22" target="_iW7lStZhV066AtyDzzr-26" edge="1">
          <mxGeometry width="50" height="50" relative="1" as="geometry">
            <mxPoint x="910" y="150" as="sourcePoint" />
            <mxPoint x="960" y="100" as="targetPoint" />
            <Array as="points">
              <mxPoint x="855" y="108" />
            </Array>
          </mxGeometry>
        </mxCell>
        <mxCell id="_iW7lStZhV066AtyDzzr-39" value="Logger" style="rounded=0;whiteSpace=wrap;html=1;fillColor=#d5e8d4;strokeColor=#82b366;" parent="1" vertex="1">
          <mxGeometry x="542.5" y="330" width="145" height="20" as="geometry" />
        </mxCell>
        <mxCell id="_iW7lStZhV066AtyDzzr-40" value="&lt;br&gt;+AggiungiLog(VoceDiLog)&lt;br&gt;" style="rounded=0;whiteSpace=wrap;html=1;fillColor=#f5f5f5;fontColor=#333333;strokeColor=#666666;" parent="1" vertex="1">
          <mxGeometry x="542.5" y="350" width="145" height="40" as="geometry" />
        </mxCell>
        <mxCell id="_iW7lStZhV066AtyDzzr-41" value="" style="endArrow=none;html=1;rounded=0;exitX=0;exitY=0.5;exitDx=0;exitDy=0;entryX=1;entryY=0.5;entryDx=0;entryDy=0;" parent="1" source="_iW7lStZhV066AtyDzzr-40" target="_iW7lStZhV066AtyDzzr-40" edge="1">
          <mxGeometry width="50" height="50" relative="1" as="geometry">
            <mxPoint x="650" y="270" as="sourcePoint" />
            <mxPoint x="700" y="220" as="targetPoint" />
          </mxGeometry>
        </mxCell>
        <mxCell id="_iW7lStZhV066AtyDzzr-42" value="" style="rounded=0;whiteSpace=wrap;html=1;fillColor=none;strokeColor=#82b366;" parent="1" vertex="1">
          <mxGeometry x="50" y="360" width="400" height="290" as="geometry" />
        </mxCell>
        <mxCell id="_iW7lStZhV066AtyDzzr-43" value="GestioneAmministratore" style="rounded=0;whiteSpace=wrap;html=1;fillColor=#d5e8d4;strokeColor=#82b366;" parent="1" vertex="1">
          <mxGeometry x="50" y="340" width="130" height="20" as="geometry" />
        </mxCell>
        <mxCell id="_iW7lStZhV066AtyDzzr-44" value="GestioneAmministratore Controller" style="rounded=0;whiteSpace=wrap;html=1;fillColor=#d5e8d4;strokeColor=#82b366;" parent="1" vertex="1">
          <mxGeometry x="120" y="385" width="260" height="20" as="geometry" />
        </mxCell>
        <mxCell id="_iW7lStZhV066AtyDzzr-45" value="+getAssistenti()&lt;br&gt;+creaAccountAssistenza(Username, Password)&lt;br&gt;+rimuoviAccountAssistenza(Username)" style="rounded=0;whiteSpace=wrap;html=1;fillColor=#f5f5f5;fontColor=#333333;strokeColor=#666666;" parent="1" vertex="1">
          <mxGeometry x="120" y="405" width="260" height="80" as="geometry" />
        </mxCell>
        <mxCell id="_iW7lStZhV066AtyDzzr-46" value="" style="endArrow=none;html=1;rounded=0;exitX=0;exitY=0.25;exitDx=0;exitDy=0;entryX=1;entryY=0.25;entryDx=0;entryDy=0;" parent="1" source="_iW7lStZhV066AtyDzzr-45" target="_iW7lStZhV066AtyDzzr-45" edge="1">
          <mxGeometry width="50" height="50" relative="1" as="geometry">
            <mxPoint x="270" y="470" as="sourcePoint" />
            <mxPoint x="320" y="420" as="targetPoint" />
          </mxGeometry>
        </mxCell>
        <mxCell id="_iW7lStZhV066AtyDzzr-47" value="Log Controller" style="rounded=0;whiteSpace=wrap;html=1;fillColor=#d5e8d4;strokeColor=#82b366;" parent="1" vertex="1">
          <mxGeometry x="120" y="525" width="260" height="30" as="geometry" />
        </mxCell>
        <mxCell id="_iW7lStZhV066AtyDzzr-48" value="&lt;br&gt;&lt;br&gt;+getVociDiLog(DateTime, DateTime)&lt;br&gt;+getVociDiLog(Date)&lt;br&gt;+getVociDiLog()" style="rounded=0;whiteSpace=wrap;html=1;fillColor=#f5f5f5;fontColor=#333333;strokeColor=#666666;" parent="1" vertex="1">
          <mxGeometry x="120" y="555" width="260" height="85" as="geometry" />
        </mxCell>
        <mxCell id="_iW7lStZhV066AtyDzzr-49" value="" style="endArrow=none;html=1;rounded=0;exitX=0;exitY=0.25;exitDx=0;exitDy=0;entryX=1;entryY=0.25;entryDx=0;entryDy=0;" parent="1" source="_iW7lStZhV066AtyDzzr-48" target="_iW7lStZhV066AtyDzzr-48" edge="1">
          <mxGeometry width="50" height="50" relative="1" as="geometry">
            <mxPoint x="300" y="540" as="sourcePoint" />
            <mxPoint x="350" y="490" as="targetPoint" />
          </mxGeometry>
        </mxCell>
        <mxCell id="_iW7lStZhV066AtyDzzr-50" value="" style="endArrow=classic;html=1;rounded=0;exitX=0.5;exitY=1;exitDx=0;exitDy=0;entryX=0.5;entryY=0;entryDx=0;entryDy=0;" parent="1" source="_iW7lStZhV066AtyDzzr-45" target="_iW7lStZhV066AtyDzzr-47" edge="1">
          <mxGeometry width="50" height="50" relative="1" as="geometry">
            <mxPoint x="300" y="540" as="sourcePoint" />
            <mxPoint x="350" y="490" as="targetPoint" />
          </mxGeometry>
        </mxCell>
        <mxCell id="_iW7lStZhV066AtyDzzr-51" value="1" style="text;html=1;strokeColor=none;fillColor=none;align=center;verticalAlign=middle;whiteSpace=wrap;rounded=0;" parent="1" vertex="1">
          <mxGeometry x="230" y="480" width="60" height="30" as="geometry" />
        </mxCell>
        <mxCell id="_iW7lStZhV066AtyDzzr-52" value="1" style="text;html=1;strokeColor=none;fillColor=none;align=center;verticalAlign=middle;whiteSpace=wrap;rounded=0;" parent="1" vertex="1">
          <mxGeometry x="230" y="500" width="60" height="30" as="geometry" />
        </mxCell>
        <mxCell id="_iW7lStZhV066AtyDzzr-56" value="&amp;lt;&amp;lt;uses&amp;gt;&amp;gt;" style="endArrow=classic;html=1;rounded=0;exitX=0.5;exitY=1;exitDx=0;exitDy=0;entryX=0.5;entryY=0;entryDx=0;entryDy=0;dashed=1;" parent="1" source="_iW7lStZhV066AtyDzzr-7" target="_iW7lStZhV066AtyDzzr-44" edge="1">
          <mxGeometry width="50" height="50" relative="1" as="geometry">
            <mxPoint x="300" y="260" as="sourcePoint" />
            <mxPoint x="350" y="210" as="targetPoint" />
          </mxGeometry>
        </mxCell>
        <mxCell id="_iW7lStZhV066AtyDzzr-57" value="&amp;lt;&amp;lt;uses&amp;gt;&amp;gt;" style="endArrow=classic;html=1;rounded=0;exitX=0.5;exitY=1;exitDx=0;exitDy=0;entryX=0.5;entryY=0;entryDx=0;entryDy=0;dashed=1;" parent="1" source="_iW7lStZhV066AtyDzzr-11" target="_iW7lStZhV066AtyDzzr-44" edge="1">
          <mxGeometry width="50" height="50" relative="1" as="geometry">
            <mxPoint x="300" y="260" as="sourcePoint" />
            <mxPoint x="350" y="210" as="targetPoint" />
          </mxGeometry>
        </mxCell>
        <mxCell id="_iW7lStZhV066AtyDzzr-58" value="" style="endArrow=classic;html=1;rounded=0;exitX=0.5;exitY=0;exitDx=0;exitDy=0;entryX=0.573;entryY=-0.024;entryDx=0;entryDy=0;entryPerimeter=0;" parent="1" source="_iW7lStZhV066AtyDzzr-3" target="_iW7lStZhV066AtyDzzr-21" edge="1">
          <mxGeometry width="50" height="50" relative="1" as="geometry">
            <mxPoint x="310" y="80" as="sourcePoint" />
            <mxPoint x="360" y="30" as="targetPoint" />
            <Array as="points">
              <mxPoint x="255" />
              <mxPoint x="1008" />
            </Array>
          </mxGeometry>
        </mxCell>
        <mxCell id="_iW7lStZhV066AtyDzzr-60" value="" style="rounded=0;whiteSpace=wrap;html=1;fillColor=none;strokeColor=#82b366;" parent="1" vertex="1">
          <mxGeometry x="770" y="360" width="450" height="290" as="geometry" />
        </mxCell>
        <mxCell id="_iW7lStZhV066AtyDzzr-61" value="GestioneAssistenza" style="rounded=0;whiteSpace=wrap;html=1;fillColor=#d5e8d4;strokeColor=#82b366;" parent="1" vertex="1">
          <mxGeometry x="770" y="340" width="120" height="20" as="geometry" />
        </mxCell>
        <mxCell id="_iW7lStZhV066AtyDzzr-62" value="GestioneAssitenza Controller" style="rounded=0;whiteSpace=wrap;html=1;fillColor=#d5e8d4;strokeColor=#82b366;" parent="1" vertex="1">
          <mxGeometry x="910" y="405" width="190" height="30" as="geometry" />
        </mxCell>
        <mxCell id="_iW7lStZhV066AtyDzzr-63" value="&lt;br&gt;+getProfessionistiInAttesa()&lt;br&gt;+getUtentiBloccati()&lt;br&gt;+getSegnalazioni()&lt;br&gt;+bloccaUtente(Username)&lt;br&gt;+sbloccaUtente(Username)&lt;br&gt;+rimuoviCommento(idCommento)&lt;br&gt;+rimuoviPost(idPost)&lt;br&gt;+accettaProfessionista(Username)" style="rounded=0;whiteSpace=wrap;html=1;fillColor=#f5f5f5;fontColor=#333333;strokeColor=#666666;" parent="1" vertex="1">
          <mxGeometry x="910" y="435" width="190" height="155" as="geometry" />
        </mxCell>
        <mxCell id="_iW7lStZhV066AtyDzzr-64" value="" style="endArrow=none;html=1;rounded=0;entryX=1.019;entryY=0.16;entryDx=0;entryDy=0;exitX=0.005;exitY=0.155;exitDx=0;exitDy=0;entryPerimeter=0;exitPerimeter=0;" parent="1" source="_iW7lStZhV066AtyDzzr-63" target="_iW7lStZhV066AtyDzzr-63" edge="1">
          <mxGeometry width="50" height="50" relative="1" as="geometry">
            <mxPoint x="710" y="430" as="sourcePoint" />
            <mxPoint x="760" y="380" as="targetPoint" />
          </mxGeometry>
        </mxCell>
        <mxCell id="_iW7lStZhV066AtyDzzr-66" value="&amp;lt;&amp;lt;uses&amp;gt;&amp;gt;" style="endArrow=classic;html=1;rounded=0;exitX=0.5;exitY=1;exitDx=0;exitDy=0;entryX=0.5;entryY=0;entryDx=0;entryDy=0;dashed=1;" parent="1" edge="1">
          <mxGeometry width="50" height="50" relative="1" as="geometry">
            <mxPoint x="1004" y="280" as="sourcePoint" />
            <mxPoint x="1004" y="405" as="targetPoint" />
          </mxGeometry>
        </mxCell>
        <mxCell id="_iW7lStZhV066AtyDzzr-67" value="&amp;lt;&amp;lt;uses&amp;gt;&amp;gt;" style="endArrow=classic;html=1;rounded=0;exitX=0.562;exitY=0.977;exitDx=0;exitDy=0;entryX=1;entryY=0.5;entryDx=0;entryDy=0;dashed=1;exitPerimeter=0;" parent="1" source="_iW7lStZhV066AtyDzzr-28" target="_iW7lStZhV066AtyDzzr-63" edge="1">
          <mxGeometry x="0.0237" y="-1" width="50" height="50" relative="1" as="geometry">
            <mxPoint x="900" y="240" as="sourcePoint" />
            <mxPoint x="950" y="190" as="targetPoint" />
            <Array as="points">
              <mxPoint x="1130" y="513" />
            </Array>
            <mxPoint as="offset" />
          </mxGeometry>
        </mxCell>
        <mxCell id="_iW7lStZhV066AtyDzzr-68" value="" style="endArrow=classic;html=1;rounded=0;entryX=0;entryY=0.5;entryDx=0;entryDy=0;dashed=1;" parent="1" target="_iW7lStZhV066AtyDzzr-63" edge="1">
          <mxGeometry width="50" height="50" relative="1" as="geometry">
            <mxPoint x="860" y="210" as="sourcePoint" />
            <mxPoint x="950" y="380" as="targetPoint" />
            <Array as="points">
              <mxPoint x="860" y="513" />
            </Array>
          </mxGeometry>
        </mxCell>
        <mxCell id="_iW7lStZhV066AtyDzzr-69" value="&amp;lt;&amp;lt;uses&amp;gt;&amp;gt;" style="edgeLabel;html=1;align=center;verticalAlign=middle;resizable=0;points=[];" parent="_iW7lStZhV066AtyDzzr-68" vertex="1" connectable="0">
          <mxGeometry x="0.5489" relative="1" as="geometry">
            <mxPoint y="-103" as="offset" />
          </mxGeometry>
        </mxCell>
        <mxCell id="_iW7lStZhV066AtyDzzr-70" value="&amp;lt;&amp;lt;uses&amp;gt;&amp;gt;" style="endArrow=classic;html=1;rounded=0;entryX=0.5;entryY=1;entryDx=0;entryDy=0;dashed=1;" parent="1" target="_iW7lStZhV066AtyDzzr-17" edge="1">
          <mxGeometry width="50" height="50" relative="1" as="geometry">
            <mxPoint x="1010" y="590" as="sourcePoint" />
            <mxPoint x="610" y="430" as="targetPoint" />
            <Array as="points">
              <mxPoint x="1010" y="680" />
              <mxPoint x="620" y="680" />
            </Array>
          </mxGeometry>
        </mxCell>
        <mxCell id="_iW7lStZhV066AtyDzzr-72" value="&amp;lt;&amp;lt;uses&amp;gt;&amp;gt;" style="endArrow=none;html=1;rounded=0;exitX=0.999;exitY=0.804;exitDx=0;exitDy=0;exitPerimeter=0;dashed=1;" parent="1" source="_iW7lStZhV066AtyDzzr-45" edge="1">
          <mxGeometry width="50" height="50" relative="1" as="geometry">
            <mxPoint x="350" y="530" as="sourcePoint" />
            <mxPoint x="620" y="470" as="targetPoint" />
          </mxGeometry>
        </mxCell>
        <mxCell id="_iW7lStZhV066AtyDzzr-73" value="&amp;lt;&amp;lt;uses&amp;gt;&amp;gt;" style="endArrow=none;html=1;rounded=0;dashed=1;" parent="1" edge="1">
          <mxGeometry width="50" height="50" relative="1" as="geometry">
            <mxPoint x="380" y="590" as="sourcePoint" />
            <mxPoint x="620" y="590" as="targetPoint" />
          </mxGeometry>
        </mxCell>
        <mxCell id="_iW7lStZhV066AtyDzzr-74" value="" style="endArrow=none;html=1;rounded=0;entryX=0.5;entryY=1;entryDx=0;entryDy=0;" parent="1" target="_iW7lStZhV066AtyDzzr-17" edge="1">
          <mxGeometry width="50" height="50" relative="1" as="geometry">
            <mxPoint x="620" y="590" as="sourcePoint" />
            <mxPoint x="400" y="540" as="targetPoint" />
          </mxGeometry>
        </mxCell>
      </root>
    </mxGraphModel>
  </diagram>
</mxfile>
